<mxfile host="app.diagrams.net" modified="2022-08-22T02:14:51.444Z" agent="5.0 (Windows NT 10.0; Win64; x64) AppleWebKit/537.36 (KHTML, like Gecko) Chrome/104.0.0.0 Safari/537.36" etag="QzZD-08T-nHXl09qu41h" version="20.2.5" type="github">
  <diagram id="R2lEEEUBdFMjLlhIrx00" name="Page-1">
    <mxGraphModel dx="1422" dy="794" grid="1" gridSize="10" guides="1" tooltips="1" connect="1" arrows="1" fold="1" page="1" pageScale="1" pageWidth="850" pageHeight="1100" math="0" shadow="0" extFonts="Permanent Marker^https://fonts.googleapis.com/css?family=Permanent+Marker">
      <root>
        <mxCell id="0" />
        <mxCell id="1" parent="0" />
        <mxCell id="na4nALbjxBEy-xKbqhV2-15" style="edgeStyle=orthogonalEdgeStyle;rounded=0;orthogonalLoop=1;jettySize=auto;html=1;exitX=0.5;exitY=0;exitDx=0;exitDy=0;entryX=0.5;entryY=1;entryDx=0;entryDy=0;" edge="1" parent="1" source="na4nALbjxBEy-xKbqhV2-1" target="na4nALbjxBEy-xKbqhV2-2">
          <mxGeometry relative="1" as="geometry" />
        </mxCell>
        <mxCell id="na4nALbjxBEy-xKbqhV2-16" style="edgeStyle=orthogonalEdgeStyle;rounded=0;orthogonalLoop=1;jettySize=auto;html=1;exitX=0;exitY=0;exitDx=0;exitDy=0;entryX=1;entryY=0.5;entryDx=0;entryDy=0;" edge="1" parent="1" source="na4nALbjxBEy-xKbqhV2-1" target="na4nALbjxBEy-xKbqhV2-3">
          <mxGeometry relative="1" as="geometry" />
        </mxCell>
        <mxCell id="na4nALbjxBEy-xKbqhV2-17" style="edgeStyle=orthogonalEdgeStyle;rounded=0;orthogonalLoop=1;jettySize=auto;html=1;exitX=0;exitY=0.5;exitDx=0;exitDy=0;entryX=1;entryY=0.5;entryDx=0;entryDy=0;" edge="1" parent="1" source="na4nALbjxBEy-xKbqhV2-1" target="na4nALbjxBEy-xKbqhV2-6">
          <mxGeometry relative="1" as="geometry" />
        </mxCell>
        <mxCell id="na4nALbjxBEy-xKbqhV2-18" style="edgeStyle=orthogonalEdgeStyle;rounded=0;orthogonalLoop=1;jettySize=auto;html=1;exitX=0;exitY=1;exitDx=0;exitDy=0;entryX=1;entryY=0;entryDx=0;entryDy=0;" edge="1" parent="1" source="na4nALbjxBEy-xKbqhV2-1" target="na4nALbjxBEy-xKbqhV2-4">
          <mxGeometry relative="1" as="geometry" />
        </mxCell>
        <mxCell id="na4nALbjxBEy-xKbqhV2-19" style="edgeStyle=orthogonalEdgeStyle;rounded=0;orthogonalLoop=1;jettySize=auto;html=1;exitX=0.5;exitY=1;exitDx=0;exitDy=0;" edge="1" parent="1" source="na4nALbjxBEy-xKbqhV2-1" target="na4nALbjxBEy-xKbqhV2-5">
          <mxGeometry relative="1" as="geometry" />
        </mxCell>
        <mxCell id="na4nALbjxBEy-xKbqhV2-20" style="edgeStyle=orthogonalEdgeStyle;rounded=0;orthogonalLoop=1;jettySize=auto;html=1;exitX=1;exitY=0.5;exitDx=0;exitDy=0;" edge="1" parent="1" source="na4nALbjxBEy-xKbqhV2-1">
          <mxGeometry relative="1" as="geometry">
            <mxPoint x="390" y="200" as="targetPoint" />
          </mxGeometry>
        </mxCell>
        <mxCell id="na4nALbjxBEy-xKbqhV2-1" value="Usuario" style="rounded=0;whiteSpace=wrap;html=1;" vertex="1" parent="1">
          <mxGeometry x="170" y="160" width="150" height="80" as="geometry" />
        </mxCell>
        <mxCell id="na4nALbjxBEy-xKbqhV2-2" value="Email" style="ellipse;whiteSpace=wrap;html=1;" vertex="1" parent="1">
          <mxGeometry x="180" y="80" width="110" height="40" as="geometry" />
        </mxCell>
        <mxCell id="na4nALbjxBEy-xKbqhV2-3" value="ContraseÃ±a" style="ellipse;whiteSpace=wrap;html=1;" vertex="1" parent="1">
          <mxGeometry x="40" y="100" width="110" height="40" as="geometry" />
        </mxCell>
        <mxCell id="na4nALbjxBEy-xKbqhV2-4" value="CI" style="ellipse;whiteSpace=wrap;html=1;" vertex="1" parent="1">
          <mxGeometry x="40" y="260" width="110" height="40" as="geometry" />
        </mxCell>
        <mxCell id="na4nALbjxBEy-xKbqhV2-5" value="Historial" style="ellipse;whiteSpace=wrap;html=1;" vertex="1" parent="1">
          <mxGeometry x="180" y="300" width="110" height="40" as="geometry" />
        </mxCell>
        <mxCell id="na4nALbjxBEy-xKbqhV2-6" value="Nombre" style="ellipse;whiteSpace=wrap;html=1;" vertex="1" parent="1">
          <mxGeometry x="30" y="180" width="110" height="40" as="geometry" />
        </mxCell>
        <mxCell id="na4nALbjxBEy-xKbqhV2-21" value="1" style="text;html=1;align=center;verticalAlign=middle;resizable=0;points=[];autosize=1;strokeColor=none;fillColor=none;" vertex="1" parent="1">
          <mxGeometry x="335" y="140" width="30" height="30" as="geometry" />
        </mxCell>
        <mxCell id="na4nALbjxBEy-xKbqhV2-23" style="edgeStyle=orthogonalEdgeStyle;rounded=0;orthogonalLoop=1;jettySize=auto;html=1;exitX=1;exitY=0.5;exitDx=0;exitDy=0;" edge="1" parent="1" source="na4nALbjxBEy-xKbqhV2-22" target="na4nALbjxBEy-xKbqhV2-24">
          <mxGeometry relative="1" as="geometry">
            <mxPoint x="550" y="200" as="targetPoint" />
          </mxGeometry>
        </mxCell>
        <mxCell id="na4nALbjxBEy-xKbqhV2-22" value="Realiza" style="rhombus;whiteSpace=wrap;html=1;" vertex="1" parent="1">
          <mxGeometry x="390" y="160" width="100" height="80" as="geometry" />
        </mxCell>
        <mxCell id="na4nALbjxBEy-xKbqhV2-25" style="edgeStyle=orthogonalEdgeStyle;rounded=0;orthogonalLoop=1;jettySize=auto;html=1;exitX=0.25;exitY=0;exitDx=0;exitDy=0;" edge="1" parent="1" source="na4nALbjxBEy-xKbqhV2-24">
          <mxGeometry relative="1" as="geometry">
            <mxPoint x="633" y="110" as="targetPoint" />
          </mxGeometry>
        </mxCell>
        <mxCell id="na4nALbjxBEy-xKbqhV2-26" style="edgeStyle=orthogonalEdgeStyle;rounded=0;orthogonalLoop=1;jettySize=auto;html=1;exitX=0.75;exitY=0;exitDx=0;exitDy=0;" edge="1" parent="1" source="na4nALbjxBEy-xKbqhV2-24">
          <mxGeometry relative="1" as="geometry">
            <mxPoint x="720" y="110" as="targetPoint" />
          </mxGeometry>
        </mxCell>
        <mxCell id="na4nALbjxBEy-xKbqhV2-27" style="edgeStyle=orthogonalEdgeStyle;rounded=0;orthogonalLoop=1;jettySize=auto;html=1;exitX=1;exitY=0.75;exitDx=0;exitDy=0;" edge="1" parent="1" source="na4nALbjxBEy-xKbqhV2-24" target="na4nALbjxBEy-xKbqhV2-28">
          <mxGeometry relative="1" as="geometry">
            <mxPoint x="760" y="220" as="targetPoint" />
          </mxGeometry>
        </mxCell>
        <mxCell id="na4nALbjxBEy-xKbqhV2-34" style="edgeStyle=orthogonalEdgeStyle;rounded=0;orthogonalLoop=1;jettySize=auto;html=1;exitX=0.5;exitY=1;exitDx=0;exitDy=0;" edge="1" parent="1" source="na4nALbjxBEy-xKbqhV2-24" target="na4nALbjxBEy-xKbqhV2-35">
          <mxGeometry relative="1" as="geometry">
            <mxPoint x="665" y="320" as="targetPoint" />
          </mxGeometry>
        </mxCell>
        <mxCell id="na4nALbjxBEy-xKbqhV2-24" value="Compras" style="rounded=0;whiteSpace=wrap;html=1;" vertex="1" parent="1">
          <mxGeometry x="600" y="157.5" width="130" height="85" as="geometry" />
        </mxCell>
        <mxCell id="na4nALbjxBEy-xKbqhV2-28" value="Fecha" style="ellipse;whiteSpace=wrap;html=1;" vertex="1" parent="1">
          <mxGeometry x="770" y="195" width="90" height="47.5" as="geometry" />
        </mxCell>
        <mxCell id="na4nALbjxBEy-xKbqhV2-29" value="Costo total" style="ellipse;whiteSpace=wrap;html=1;" vertex="1" parent="1">
          <mxGeometry x="680" y="60" width="90" height="47.5" as="geometry" />
        </mxCell>
        <mxCell id="na4nALbjxBEy-xKbqhV2-30" value="Tipo de entrega" style="ellipse;whiteSpace=wrap;html=1;" vertex="1" parent="1">
          <mxGeometry x="590" y="60" width="90" height="47.5" as="geometry" />
        </mxCell>
        <mxCell id="na4nALbjxBEy-xKbqhV2-31" value="1:N" style="text;html=1;align=center;verticalAlign=middle;resizable=0;points=[];autosize=1;strokeColor=none;fillColor=none;" vertex="1" parent="1">
          <mxGeometry x="440" y="245" width="40" height="30" as="geometry" />
        </mxCell>
        <mxCell id="na4nALbjxBEy-xKbqhV2-32" value="*" style="text;html=1;align=center;verticalAlign=middle;resizable=0;points=[];autosize=1;strokeColor=none;fillColor=none;" vertex="1" parent="1">
          <mxGeometry x="565" y="205" width="30" height="30" as="geometry" />
        </mxCell>
        <mxCell id="na4nALbjxBEy-xKbqhV2-33" value="*" style="text;html=1;align=center;verticalAlign=middle;resizable=0;points=[];autosize=1;strokeColor=none;fillColor=none;" vertex="1" parent="1">
          <mxGeometry x="620" y="245" width="30" height="30" as="geometry" />
        </mxCell>
        <mxCell id="na4nALbjxBEy-xKbqhV2-36" style="edgeStyle=orthogonalEdgeStyle;rounded=0;orthogonalLoop=1;jettySize=auto;html=1;exitX=0.5;exitY=1;exitDx=0;exitDy=0;" edge="1" parent="1" source="na4nALbjxBEy-xKbqhV2-35" target="na4nALbjxBEy-xKbqhV2-37">
          <mxGeometry relative="1" as="geometry">
            <mxPoint x="665" y="410" as="targetPoint" />
          </mxGeometry>
        </mxCell>
        <mxCell id="na4nALbjxBEy-xKbqhV2-35" value="Compuesta por" style="rhombus;whiteSpace=wrap;html=1;" vertex="1" parent="1">
          <mxGeometry x="610" y="280" width="110" height="80" as="geometry" />
        </mxCell>
        <mxCell id="na4nALbjxBEy-xKbqhV2-38" style="edgeStyle=orthogonalEdgeStyle;rounded=0;orthogonalLoop=1;jettySize=auto;html=1;exitX=1;exitY=0.25;exitDx=0;exitDy=0;" edge="1" parent="1" source="na4nALbjxBEy-xKbqhV2-37" target="na4nALbjxBEy-xKbqhV2-39">
          <mxGeometry relative="1" as="geometry">
            <mxPoint x="770" y="440" as="targetPoint" />
          </mxGeometry>
        </mxCell>
        <mxCell id="na4nALbjxBEy-xKbqhV2-40" style="edgeStyle=orthogonalEdgeStyle;rounded=0;orthogonalLoop=1;jettySize=auto;html=1;exitX=1;exitY=0.75;exitDx=0;exitDy=0;" edge="1" parent="1" source="na4nALbjxBEy-xKbqhV2-37" target="na4nALbjxBEy-xKbqhV2-41">
          <mxGeometry relative="1" as="geometry">
            <mxPoint x="760" y="530" as="targetPoint" />
          </mxGeometry>
        </mxCell>
        <mxCell id="na4nALbjxBEy-xKbqhV2-42" style="edgeStyle=orthogonalEdgeStyle;rounded=0;orthogonalLoop=1;jettySize=auto;html=1;exitX=0.5;exitY=1;exitDx=0;exitDy=0;" edge="1" parent="1" source="na4nALbjxBEy-xKbqhV2-37" target="na4nALbjxBEy-xKbqhV2-43">
          <mxGeometry relative="1" as="geometry">
            <mxPoint x="665" y="550" as="targetPoint" />
          </mxGeometry>
        </mxCell>
        <mxCell id="na4nALbjxBEy-xKbqhV2-44" style="edgeStyle=orthogonalEdgeStyle;rounded=0;orthogonalLoop=1;jettySize=auto;html=1;exitX=0;exitY=0.75;exitDx=0;exitDy=0;" edge="1" parent="1" source="na4nALbjxBEy-xKbqhV2-37" target="na4nALbjxBEy-xKbqhV2-45">
          <mxGeometry relative="1" as="geometry">
            <mxPoint x="560" y="500" as="targetPoint" />
          </mxGeometry>
        </mxCell>
        <mxCell id="na4nALbjxBEy-xKbqhV2-37" value="Productos" style="rounded=0;whiteSpace=wrap;html=1;" vertex="1" parent="1">
          <mxGeometry x="607.5" y="420" width="115" height="80" as="geometry" />
        </mxCell>
        <mxCell id="na4nALbjxBEy-xKbqhV2-39" value="Precio" style="ellipse;whiteSpace=wrap;html=1;" vertex="1" parent="1">
          <mxGeometry x="740" y="410" width="100" height="60" as="geometry" />
        </mxCell>
        <mxCell id="na4nALbjxBEy-xKbqhV2-41" value="CategorÃ­a" style="ellipse;whiteSpace=wrap;html=1;" vertex="1" parent="1">
          <mxGeometry x="720" y="510" width="100" height="40" as="geometry" />
        </mxCell>
        <mxCell id="na4nALbjxBEy-xKbqhV2-43" value="Modelo" style="ellipse;whiteSpace=wrap;html=1;" vertex="1" parent="1">
          <mxGeometry x="610" y="540" width="110" height="50" as="geometry" />
        </mxCell>
        <mxCell id="na4nALbjxBEy-xKbqhV2-45" value="Stock" style="ellipse;whiteSpace=wrap;html=1;" vertex="1" parent="1">
          <mxGeometry x="500" y="490" width="70" height="50" as="geometry" />
        </mxCell>
      </root>
    </mxGraphModel>
  </diagram>
</mxfile>
